<svg xmlns="http://www.w3.org/2000/svg" viewBox="0 0 674.3 741.77"><path d="M370.28 187.6v-29.52l189.47 108.54v22.06s-189-101-189.47-101.08zm0-91l189.47 118.26V238L370.28 126.16V96.61zm0-63.32l189.47 129.66v22.94L370.28 64.34V33.29zm-28.19 30.3L270 83.8V59l72.07-21.49v26.08zm0 55.83L270 139.63v-24.94l72.07-20.21v24.94zm-85.64 517L94.56 648.56v-34.87l162.55-22.28 128.53 20.9c8.14 1.13 16.32-4.58 17.45-12.72s-3.48-15.64-11.63-16.77l-132.15-21.15a8.33 8.33 0 0 0-2.86 0L94.56 583.73v-34.59l162.9-32.93 128.18 33.4c8.14 1.1 16.32-4.57 17.45-12.72s-3.48-15.63-11.63-16.76l-132.15-33.68a5.9 5.9 0 0 0-2.86.06L94.56 519v-36l162.68-41.92 128.4 45.24a14.77 14.77 0 0 0 17.45-11.56 14.94 14.94 0 0 0-11.63-17.58l-131.18-45.81a6.74 6.74 0 0 0-3.83 0l-161.89 41.3v-37.29l162.62-48.87 128.46 53.76c7.92 2.2 15.29-2.47 17.45-10.37s-3.7-16.13-11.63-18.3l-130.24-54.86c-2.54-.69-2.26-.72-4.77 0L94.56 384.65v-33l162.87-59.87 128.21 61.38c7.86 2.22 15.19-2.32 17.45-10.22s-3.73-16.13-11.63-18.39L261.34 262c-2.76-.78-2.13-.75-4.89.09L94.56 320.51v-32.62l163.24-72.5 127.84 67.52c7.8 2.41 15-1.91 17.45-9.77s-3.79-16.14-11.63-18.62l-129.74-69.08c-3.23-1-2.13-.88-5.27.34L80.27 261.51c-16.26 6.36-17 19-17 24.35v424.58H14.88C6.64 710.44 0 717.9 0 726.11s6.64 15.66 14.88 15.66h644.57c8.21 0 14.85-7.45 14.85-15.66s-6.64-15.67-14.85-15.67H593v-553.7a14.68 14.68 0 0 0-8.42-13.63L372.82 1.36a15 15 0 0 0-10.59-.72l-109.41 33c-6.17 1.85-11 7.49-11 14V177l100.27-26.7v60.54l217.66 105.94v22.75l-139.55-71v31l139.55 67.86v23l-139.55-60v30.65l139.55 56.77v22.31L420.2 392.48V423l139.55 44.46v22c-.13.56-129-33.47-139.55-35v30c1.56.85 139.55 31.74 139.55 32.06V538L420.2 516.59v30.11l139.55 18.23V590L420.2 578.47v29.92l139.55 11.53v23.81c0 .13-127.55-2.41-139.55-3.25v29.79c.4-.56 138.08 3.35 138.08 3.29v36.88H94.56v-32.08l162.68-12.22 128.4 7.05c8.21.47 17-5.77 17.45-14s-3.42-15.23-11.63-15.73l-135-7.08z" fill="#e34b37"/></svg>