<svg xmlns="http://www.w3.org/2000/svg" viewBox="0 0 748.84 701.84"><defs><style>.a{fill:#0068aa}</style></defs><path class="a" d="M374.42 673.64h-94v-99.76c0-7.86-7.14-13-15-13h-56.87c-7.87 0-12.72 5.17-12.72 13v99.76H89.3V28.2h285.12v645.44zm-122.2 0H224v-84.59h28.19v84.59zm397.92 0H402.62V14.6c0-7.83-6.14-14.6-14-14.6H75.82A15 15 0 0 0 61.1 14.6v659H14.22a14.1 14.1 0 1 0 0 28.2h720.4a14.1 14.1 0 1 0 0-28.2h-56.28V185.24c0-7.87-7-12.91-14.82-12.91H450.24a14.1 14.1 0 1 0 0 28.2h199.9v473.11z"/><path class="a" d="M260.06 217.76h-37.6v-47h37.6v47zm84.59 0h-37.59v-47h37.59v47zm-172.32 0h-37.6v-47h37.6v47zm87.73-81.47h-37.6V89.3h37.6v46.99zm84.59 0h-37.59V89.3h37.59v46.99zm-172.32 0h-37.6V89.3h37.6v46.99zm87.73 162.93h-37.6v-47h37.6v47zm84.59 0h-37.59v-47h37.59v47zm-172.32 0h-37.6v-47h37.6v47zm419.85 18.8h-40.73v-47h40.73v47zm-87.73 0h-37.6v-47h37.6v47zm87.73 159.8h-40.73v-47h40.73v47zm-87.73 0h-37.6v-47h37.6v47zm87.73-81.47h-40.73v-47h40.73v47zm-87.73 0h-37.6v-47h37.6v47zm87.73 162.93h-40.73v-50.13h40.73v50.13zm-87.73 0h-37.6v-50.13h37.6v50.13zM260.06 377.55h-37.6v-46.99h37.6v46.99zm84.59 0h-37.59v-46.99h37.59v46.99zm-172.32 0h-37.6v-46.99h37.6v46.99zm87.73 162.93h-37.6v-50.13h37.6v50.13zm84.59 0h-37.59v-50.13h37.59v50.13zm-172.32 0h-37.6v-50.13h37.6v50.13zm87.73-81.46h-37.6v-47h37.6v47zm84.59 0h-37.59v-47h37.59v47zm-172.32 0h-37.6v-47h37.6v47z"/></svg>