<svg xmlns="http://www.w3.org/2000/svg" viewBox="0 0 1550.87 1014.81"><defs><style>.a{fill:#ffa000}</style></defs><path class="a" d="M356.49 666.18a18.79 18.79 0 0 1-18-13.32c-20.69-68.27-128-77.19-129.12-77.28a18.76 18.76 0 0 1-16.64-23.84c73.31-258.18 124.61-443.53 125.12-445.37a18.76 18.76 0 0 1 22.53-13.23C427.17 114.21 586.21 71 587.81 70.53a18.77 18.77 0 0 1 10 36.2c-6.49 1.79-151.12 41.13-248.35 26.38-13.74 49.49-56.9 204.53-114.67 408.19 39.43 7.31 118.43 30.52 139.7 100.66a18.78 18.78 0 0 1-18 24.22zM497.28 877c-17.53 0-33.44-6.05-47.29-18-35.62-30.63-36.86-77.47-3.2-122.23 26.16-34.8 46.51-52 51.08-55.71 5.35-5 30.39-26.65 63.22-26.65 15.31 0 29.74 4.72 42.88 14 19.88 14.1 31.09 33.12 32.42 55 2.23 36.71-23.34 79.6-76 127.47C546.56 863.5 522.71 877 497.28 877zm63.81-185c-19.81 0-37.59 16.54-37.76 16.7a19.08 19.08 0 0 1-1.73 1.51c-.13.1-19.11 15-44.8 49.17-12.49 16.6-29.39 47.94-2.32 71.22 6.94 6 14.4 8.87 22.8 8.87 15.76 0 31.21-10.23 37.86-16.27 57.47-52.25 64.63-83.47 63.78-97.43-.63-10.43-6.08-19.15-16.66-26.65-6.76-4.85-13.69-7.18-21.17-7.18z"/><path class="a" d="M610.38 961.52c-16.23 0-32.07-5.78-47.09-17.19-35.25-26.78-36.89-74.11-4.08-117.76 24.93-33.18 44.36-49.54 48.61-53 4.58-4.17 24.73-21 51.87-21 16.27 0 31.4 5.94 45 17.64 18.84 16.26 28.54 35.44 28.83 57 .43 32.72-20.92 68.24-65.27 108.6-19.03 17.35-37.94 25.71-57.87 25.71zm49.31-171.3c-14.42 0-26.63 11.19-26.75 11.31-.45.41-1 .91-1.52 1.28-.12.1-18 14.1-42.2 46.31-7.61 10.12-30.31 44.73-3.21 65.32 19.26 14.64 36 12.68 57-6.29 44.12-40.15 53.16-65.84 53-80.31-.14-10.53-5.31-20.05-15.81-29.1-6.71-5.74-13.4-8.52-20.51-8.52zM384 787c-16.41 0-31.55-5.81-45-17.27-33.64-28.62-34.89-72.53-3.26-114.59 24.46-32.55 43.5-48.5 47.44-51.65 4.25-3.76 23.06-18.94 49.73-18.94 15.27 0 30 5 43.66 14.74 18.59 13.26 29.05 31.24 30.28 52 1.95 33-19.7 70.28-64.36 110.9C434.25 769.64 412.13 787 384 787zm48.91-164.91c-14.09 0-24.82 9.49-24.93 9.58-.37.33-.91.79-1.3 1.09-.11.09-17.45 13.69-40.94 45-11.22 14.91-26.44 43-2.41 63.44 6.57 5.59 13.33 8.31 20.67 8.31 12.29 0 25.23-7.78 33.23-15.05 47-42.75 52.85-69 52.15-80.91-.55-9.29-5.33-17-14.62-23.65-7.33-5.28-14.48-7.82-21.87-7.82z"/><path class="a" d="M704.48 1014.81c-12.55 0-24.75-4.45-36.26-13.24-29.42-22.43-33.42-58.88-10.43-95.14 17.24-27.26 31.06-41 34.62-44.37 4.1-4.34 21-20.46 45.33-20.46 11.87 0 23.33 3.81 34 11.35 16.34 11.48 25.94 26.83 27.75 44.4 2.74 26.6-11.86 56.53-44.64 91.52-5.96 6.42-24.25 25.94-50.37 25.94zm33.26-135.67c-9.76 0-17.89 8.52-18 8.61a20.47 20.47 0 0 1-1.54 1.55c-.06.05-12.54 11.62-28.74 37.22-12.5 19.72-12 34.93 1.49 45.2 4.89 3.74 9.3 5.55 13.49 5.55 9.84 0 19.76-10.59 23-14.07 32.21-34.37 35.56-53.6 34.7-62-.44-4.21-2.15-10.62-12-17.54-4.27-3.04-8.35-4.52-12.4-4.52z"/><path class="a" d="M846.48 1008.56h-1c-43-.7-74.54-43-78-47.87A18.77 18.77 0 0 1 798 938.83c6.44 8.88 27.59 31.92 48.15 32.19 10.66-.2 21.29-6.37 31.67-19.92 26.5-34.61-50-95.16-95.71-131.34-6.89-5.45-13.32-10.55-19-15.2a18.77 18.77 0 0 1 23.79-29c5.53 4.54 11.8 9.49 18.51 14.81C865.61 838 956.58 910 907.62 973.93c-21.81 28.48-45.1 34.63-61.14 34.63z"/><path class="a" d="M939.71 937a85.36 85.36 0 0 1-64.93-29.49A18.77 18.77 0 1 1 903 882.74c16.72 19.07 40.68 19.09 57.54 12.75 16.29-6.14 35.33-22 35.33-46.63-.75-20.78-81.73-97.79-148.29-147.67a18.77 18.77 0 1 1 22.51-30c6.67 5 163.32 123 163.32 177.71 0 36-23.42 68.12-59.65 81.76a96.57 96.57 0 0 1-34.05 6.34z"/><path class="a" d="M1049.37 865.32c-19.9 0-39.1-7.47-54.66-22.56a18.77 18.77 0 0 1 26.14-27c22.38 21.72 50.69 10.45 68.12-5.8 18.46-17.19 30-45.09 15-62.92-36-42.72-178.68-151.23-180.12-152.32a18.77 18.77 0 0 1 22.7-29.9c6 4.55 147.53 112.15 186.15 158 30.24 36 13.77 84.85-18.13 114.57-19.86 18.61-42.97 27.93-65.2 27.93z"/><path class="a" d="M1165.87 769.42a64.65 64.65 0 0 1-24.83-4.71c-24.6-10.18-56.79-38.58-60.38-41.78a18.77 18.77 0 0 1 25-28c8.45 7.54 33.86 28.53 49.73 35.1 16.47 6.82 43.7-4.88 58.22-25.06 9.1-12.64 20.17-38.67-7.91-71a18.77 18.77 0 0 1 28.3-24.63c32.41 37.31 36.17 81.26 10 117.56-19 26.56-50 42.52-78.13 42.52zm183.73-166.34a18.77 18.77 0 0 1-18.13-13.94L1193.89 72.52a18.78 18.78 0 0 1 13.31-23L1389.71.94a18.76 18.76 0 0 1 23 13.3l137.56 516.65a18.78 18.78 0 0 1-13.31 23l-182.49 48.59a19.26 19.26 0 0 1-4.87.6zM1235 81l127.92 480.34 146.21-38.93L1381.23 42zM200.52 603.39a18.87 18.87 0 0 1-5.12-.71L13.67 551.35a18.78 18.78 0 0 1-13-23.17L146 13.68a18.75 18.75 0 0 1 23.16-13L350.94 52a18.79 18.79 0 0 1 13 23.17L218.57 589.72a18.78 18.78 0 0 1-18.05 13.67zM41.94 520.32l145.61 41.13L322.67 83.07 177.06 42z"/><path class="a" d="M1219.86 640.43a18.71 18.71 0 0 1-12-4.35L788.65 287.15c-9.74-7.6-21.09-11.48-34.24-11.48-43.32 0-94.25 41-124.68 65.55-5.84 4.7-11 8.83-15.27 12.07-24.69 18.64-78 46.4-123.73 46.4-36.89 0-55.87-17.7-65.3-32.54C375.51 288.6 540.9 99.21 602.86 59.12c25.25-16.35 58.92-24.3 102.91-24.3 62 0 135.49 15.4 213.28 31.71s158.34 33.17 225.5 33.17c28.22 0 51.82-2.89 72.16-8.84a18.78 18.78 0 0 1 23.41 13.2l117.63 443a18.78 18.78 0 0 1-10.4 21.92c-24.29 11-92.18 44.3-114.32 66.06a18.74 18.74 0 0 1-13.17 5.39zm-465.45-402.3a91.69 91.69 0 0 1 57.81 19.8l407.56 339.23c28.23-21.42 74-44.36 97.65-55.65l-108.87-410c-19.09 3.86-40.21 5.75-64 5.75-71 0-153.48-17.27-233.2-34-75.84-15.9-147.47-30.91-205.58-30.91-36.53 0-63.52 6-82.51 18.27C553.82 135.57 429.75 304 457.11 347c2.38 3.74 9.62 15.13 33.62 15.13 34.29 0 79.77-22.71 101.12-38.83 4-3.05 8.86-6.93 14.32-11.34 34.29-27.6 91.67-73.83 148.24-73.83z"/></svg>